# OBJ written from /Users/benrosen/Desktop/fork.obj
# Units	meters

o Mesh
v 0.93 -0.0425 -0.5
v 1.39 -0.0425 -0.5
v 1.39 -0.0425 0.5
v 0.93 -0.0425 0.5
v 0.93 0.0425 -0.5
v 1.39 0.0425 -0.5
v 1.39 0.0425 0.5
v 0.93 0.0425 0.5
v 0.93 0.0425 -0.166667
v 0.93 -0.0425 -0.166667
v 0.93 -0.0425 0.166667
v 0.93 0.0425 0.166667
v 1.39 0.0425 -0.166667
v 1.39 0.0425 0.166667
v 1.39 -0.0425 -0.166667
v 1.39 -0.0425 0.166667
v 2.39 0.0425 0.5
v 2.39 -0.0425 0.5
v 2.39 -0.0425 0.446667
v 2.39 0.0425 0.446667
v 2.39 0.0425 -0.5
v 2.39 0.0425 -0.446667
v 2.39 -0.0425 -0.446667
v 2.39 -0.0425 -0.5
v 2.39 0.0425 -0.0266667
v 2.39 0.0425 0.0266667
v 2.39 -0.0425 0.0266667
v 2.39 -0.0425 -0.0266667
v -2.39 -0.0425 -0.166667
v -2.39 -0.0425 0.166667
v -2.39 0.0425 0.166667
v -2.39 0.0425 -0.166667
vn 0 0 -1
vn 0 0 1
vn -1 0 0
vn 0 1 0
vn 0 -1 0
vn 0.26963 0 -0.962964
vn 1 0 0
vn 0.26963 0 0.962964
vn 0.138648 0 -0.990342
vn 0.138648 0 0.990342
vt 1 0.666667
vt 0.75 0.666667
vt 0.75 0.333333
vt 1 0.333333
vt 0.5 0.666667
vt 0.25 0.666667
vt 0.25 0.333333
vt 0.5 0.333333
vt 0.166667 0.666667
vt 0.166667 0.333333
vt 0 0.333333
vt 0.0833333 0.333333
vt 0.0833333 0.666667
vt 0 0.666667
vt 0.5 0.777778
vt 0.25 0.777778
vt 0.25 1
vt 0.25 0.888889
vt 0.5 0.888889
vt 0.5 1
vt 0.25 0.222222
vt 0.5 0.222222
vt 0.5 0
vt 0.5 0.111111
vt 0.25 0.111111
vt 0.25 0
vt 0.583333 0.666667
vt 0.583333 0.333333
vt 0.666667 0.666667
vt 0.666667 0.333333
mtllib fork.mtl
usemtl Default
g Default
f 5/1/1 6/2/1 2/3/1 1/4/1
f 7/5/2 8/6/2 4/7/2 3/8/2
f 4/7/3 8/6/3 12/9/3 11/10/3
f 1/11/3 10/12/3 9/13/3 5/14/3
f 8/6/4 7/5/4 14/15/4 12/16/4
f 5/17/4 9/18/4 13/19/4 6/20/4
f 9/18/4 12/16/4 14/15/4 13/19/4
f 3/8/5 4/7/5 11/21/5 16/22/5
f 2/23/5 15/24/5 10/25/5 1/26/5
f 15/24/5 16/22/5 11/21/5 10/25/5
f 14/27/4 7/5/4 17/5/4 20/27/4
f 7/5/2 3/8/2 18/8/2 17/5/2
f 3/8/5 16/28/5 19/28/5 18/8/5
f 16/28/6 14/27/6 20/27/6 19/28/6
f 17/5/7 18/8/7 19/28/7 20/27/7
f 2/3/1 6/2/1 21/2/1 24/3/1
f 6/2/4 13/29/4 22/29/4 21/2/4
f 13/29/8 15/30/8 23/30/8 22/29/8
f 15/30/5 2/3/5 24/3/5 23/30/5
f 21/2/7 22/29/7 23/30/7 24/3/7
f 15/30/9 13/29/9 25/29/9 28/30/9
f 13/29/4 14/27/4 26/27/4 25/29/4
f 14/27/10 16/28/10 27/28/10 26/27/10
f 16/28/5 15/30/5 28/30/5 27/28/5
f 25/29/7 26/27/7 27/28/7 28/30/7
f 9/13/1 10/12/1 29/12/1 32/13/1
f 10/12/5 11/10/5 30/10/5 29/12/5
f 11/10/2 12/9/2 31/9/2 30/10/2
f 12/9/4 9/13/4 32/13/4 31/9/4
f 29/12/3 30/10/3 31/9/3 32/13/3
