# OBJ written from /Users/benrosen/Desktop/shell.obj
# Units	meters

o Mesh
v -0.25 -0.025 -0.321625
v 0.4375 -0.025 -0.1651
v 0.4375 -0.025 0.1651
v -0.25 -0.025 0.321625
v -0.25 0.025 -0.321625
v 0.4375 0.025 -0.1651
v 0.4375 0.025 0.1651
v -0.25 0.025 0.321625
v 0.3125 -0.025 -0.0455
v 0.3125 -0.025 0.0455
v 0.3125 0.025 -0.0455
v 0.3125 0.025 0.0455
v -0.001 0.025 -0.455312
v -0.001 0.025 0.455312
v -0.001 -0.025 0.455312
v -0.001 -0.025 -0.455312
v 0.4375 -0.025 0
v 0.4375 0.025 0
v -0.382 0.025 0
v -0.382 -0.025 0
v 0.3125 -0.025 0
v 0.3125 0.025 0
v -0.001 0.025 0
v -0.001 -0.025 0
vn -0.691328 0 -0.722541
vn -0.691328 0 0.722541
vn 0.794251 0 -0.607589
vn -0.473031 0 -0.881046
vn -0.742661 0 -0.669667
vn 0.794251 0 0.607589
vn -0.473031 0 0.881046
vn -0.742661 0 0.669667
vn 1 0 0
vn -0.925117 0 0.379683
vn -0.925117 0 -0.379683
vn 0 -1 0
vn 0 1 0
vt 0.8125 0.666667
vt 0.75 0.666667
vt 0.75 0.333333
vt 0.8125 0.333333
vt 0.4375 0.333333
vt 0.5 0.333333
vt 0.5 0.666667
vt 0.4375 0.666667
vt 0.90625 0.666667
vt 0.90625 0.333333
vt 1 0.333333
vt 1 0.666667
vt 0.34375 0.333333
vt 0.34375 0.666667
vt 0.25 0.666667
vt 0.25 0.333333
vt 0.625 0.666667
vt 0.625 0.333333
vt 0.125 0.333333
vt 0.125 0.666667
vt 0 0.666667
vt 0 0.333333
vt 0.5 0.166667
vt 0.4375 0.166667
vt 0.5 0
vt 0.4375 0
vt 0.5 0.833333
vt 0.4375 0.833333
vt 0.5 1
vt 0.4375 1
vt 0.34375 0.833333
vt 0.34375 1
vt 0.25 0.833333
vt 0.25 1
vt 0.34375 0.166667
vt 0.34375 0
vt 0.25 0.166667
vt 0.25 0
mtllib shell.mtl
usemtl Default
g Default
f 11/1/1 6/2/1 2/3/1 9/4/1
f 10/5/2 3/6/2 7/7/2 12/8/2
f 13/9/3 11/1/3 9/4/3 16/10/3
f 16/10/4 1/11/5 5/12/5 13/9/4
f 15/13/6 10/5/6 12/8/6 14/14/6
f 14/14/7 8/15/8 4/16/8 15/13/7
f 18/17/9 7/7/9 3/6/9 17/18/9
f 17/18/9 2/3/9 6/2/9 18/17/9
f 20/19/10 4/16/8 8/15/8 19/20/10
f 19/20/11 5/21/5 1/22/5 20/19/11
f 17/23/12 3/6/12 10/5/12 21/24/12
f 2/25/12 17/23/12 21/24/12 9/26/12
f 7/7/13 18/27/13 22/28/13 12/8/13
f 18/27/13 6/29/13 11/30/13 22/28/13
f 23/31/13 14/14/13 12/8/13 22/28/13
f 13/32/13 23/31/13 22/28/13 11/30/13
f 23/31/13 19/33/13 8/15/13 14/14/13
f 23/31/13 13/32/13 5/34/13 19/33/13
f 15/13/12 24/35/12 21/24/12 10/5/12
f 24/35/12 16/36/12 9/26/12 21/24/12
f 24/35/12 15/13/12 4/16/12 20/37/12
f 24/35/12 20/37/12 1/38/12 16/36/12
